<svg width="82" height="17" viewBox="0 0 82 17" fill="none" xmlns="http://www.w3.org/2000/svg">
<path d="M81.8101 7.87496L74.1023 0.188448C73.8497 -0.0632436 73.4409 -0.0628206 73.1888 0.18975C72.9368 0.442288 72.9375 0.851381 73.1901 1.10327L80.4391 8.33229L73.1898 15.5613C72.9373 15.8132 72.9366 16.222 73.1885 16.4746C73.3149 16.6012 73.4805 16.6645 73.646 16.6645C73.8112 16.6645 73.9761 16.6016 74.1023 16.4759L81.8101 8.78958C81.9317 8.66857 82 8.50388 82 8.33229C82 8.1607 81.9316 7.9962 81.8101 7.87496Z" fill="#FFBD54"/>
<path d="M0.189883 8.78959L7.89771 16.4761C8.15025 16.7278 8.55912 16.7274 8.81123 16.4748C9.06315 16.2223 9.0625 15.8132 8.80993 15.5613L1.56089 8.33226L8.81019 1.10328C9.06273 0.851357 9.06338 0.442526 8.81149 0.189955C8.68511 0.0633431 8.51954 3.8189e-05 8.35397 3.82035e-05C8.18882 3.82179e-05 8.0239 0.0629197 7.89774 0.188652L0.189883 7.87497C0.0682518 7.99598 -7.43433e-07 8.16067 -7.28432e-07 8.33226C-7.13431e-07 8.50386 0.0684474 8.66835 0.189883 8.78959Z" fill="#FFBD54"/>
</svg>
