<svg width="42" height="60" viewBox="0 0 42 60" fill="none" xmlns="http://www.w3.org/2000/svg">
<path d="M21 59.2463C20.8609 59.0878 20.6851 58.886 20.4765 58.6439C19.905 57.9806 19.0879 57.0147 18.107 55.806C16.1447 53.3882 13.5291 50.0018 10.9145 46.1266C8.29892 42.25 5.69053 37.8932 3.73755 33.5339C1.78164 29.168 0.5 24.8363 0.5 21C0.5 9.66614 9.66614 0.5 21 0.5C32.3339 0.5 41.5 9.66614 41.5 21C41.5 24.8363 40.2184 29.168 38.2624 33.5339C36.3095 37.8932 33.7011 42.25 31.0855 46.1266C28.4709 50.0018 25.8553 53.3882 23.893 55.806C22.9121 57.0147 22.095 57.9806 21.5235 58.6439C21.3149 58.886 21.1391 59.0878 21 59.2463ZM15.3431 26.6569C16.8434 28.1571 18.8783 29 21 29C23.1217 29 25.1566 28.1571 26.6569 26.6569C28.1571 25.1566 29 23.1217 29 21C29 18.8783 28.1571 16.8434 26.6569 15.3431C25.1566 13.8429 23.1217 13 21 13C18.8783 13 16.8434 13.8429 15.3431 15.3431C13.8429 16.8434 13 18.8783 13 21C13 23.1217 13.8429 25.1566 15.3431 26.6569Z" fill="#FFBD54" stroke="black"/>
</svg>
